<svg width="166.000000" height="26.786743" viewBox="0 0 166 26.7867" fill="none" xmlns="http://www.w3.org/2000/svg" xmlns:xlink="http://www.w3.org/1999/xlink">
	<desc>
			Created with Pixso.
	</desc>
	<defs/>
	<path id="High pass" d="M57.1384 4.53717Q57.1384 4.07086 57.3115 3.68146Q57.4883 3.28394 57.8452 2.96661C58.3164 2.53033 58.9097 2.31219 59.6252 2.31219C60.3408 2.31219 60.9341 2.53033 61.4053 2.96661Q61.7622 3.28394 61.939 3.68146Q62.1121 4.07086 62.1121 4.53717Q62.1121 4.92395 61.9861 5.2641Q61.8135 5.72961 61.4053 6.10773Q61.1926 6.30457 60.9468 6.44226Q60.3755 6.76208 59.6252 6.76208C58.9097 6.76208 58.3164 6.54401 57.8452 6.10773Q57.437 5.72961 57.2644 5.2641Q57.1384 4.92395 57.1384 4.53717ZM37.5188 21.8133L37.5188 3.49011L42.3613 3.49011L42.3613 10.2959L49.429 10.2959L49.429 3.49011L54.2715 3.49011L54.2715 21.8133L49.429 21.8133L49.429 14.7458L42.3613 14.7458L42.3613 21.8133L37.5188 21.8133ZM81.4771 21.8133L81.4771 3.49011L85.927 3.49011L85.927 10.0341L86.1887 10.0341C86.4331 9.6153 86.7471 9.24884 87.1311 8.93469Q87.7441 8.41772 88.4512 8.13818Q89.2837 7.80914 90.2461 7.80914C91.8516 7.80914 93.0991 8.29779 93.9893 9.27502C94.8965 10.2348 95.3503 11.6221 95.3503 13.437L95.3503 21.8133L90.9004 21.8133L90.9004 14.0914Q90.9004 13.0052 90.3662 12.3641Q90.321 12.31 90.2722 12.2591C89.8533 11.8228 89.2776 11.6047 88.5447 11.6047C87.7942 11.6047 87.166 11.8839 86.6599 12.4423C86.1714 12.9833 85.927 13.7075 85.927 14.6149L85.927 21.8133L81.4771 21.8133ZM65.8362 19.7454Q65.4744 19.3459 65.1873 18.8986Q64.0823 17.1768 64.0823 14.7458Q64.0823 12.3148 65.1873 10.5929Q65.4744 10.1456 65.8362 9.74615C67.0054 8.45483 68.4275 7.80914 70.1028 7.80914C71.3069 7.80914 72.3452 8.15814 73.2178 8.8562C73.6191 9.17029 73.9331 9.51929 74.1602 9.9032L74.4219 9.9032L74.4219 8.20178L78.8718 8.20178L78.8718 26.7867L65.9146 26.7867L65.9146 23.253L74.4219 23.253L74.4219 19.7192L74.1602 19.7192C73.9158 20.1031 73.6016 20.4347 73.2178 20.7139C72.3625 21.3596 71.3242 21.6824 70.1028 21.6824C68.4275 21.6824 67.0054 21.0367 65.8362 19.7454ZM105.174 26.7867L105.174 8.20178L109.623 8.20178L109.623 10.0341L109.885 10.0341C110.129 9.63275 110.461 9.2663 110.88 8.93469C111.84 8.18433 112.861 7.80914 113.942 7.80914C115.618 7.80914 117.04 8.47229 118.209 9.79852C119.378 11.1073 119.963 12.8437 119.963 15.0076C119.963 17.1714 119.378 18.9165 118.209 20.2427C117.04 21.5515 115.618 22.2059 113.942 22.2059C112.843 22.2059 111.822 21.8395 110.88 21.1066C110.461 20.775 110.129 20.3998 109.885 19.981L109.623 19.981L109.623 26.7867L105.174 26.7867ZM123.275 20.2427C122.106 18.9165 121.521 17.1714 121.521 15.0076C121.521 12.8437 122.106 11.1073 123.275 9.79852C124.444 8.47229 125.866 7.80914 127.542 7.80914C128.624 7.80914 129.645 8.18433 130.604 8.93469C131.006 9.2663 131.337 9.63275 131.599 10.0341L131.861 10.0341L131.861 8.20178L136.311 8.20178L136.311 21.8133L131.861 21.8133L131.861 19.981L131.599 19.981C131.355 20.3998 131.023 20.775 130.604 21.1066C129.662 21.8395 128.641 22.2059 127.542 22.2059C125.866 22.2059 124.444 21.5515 123.275 20.2427ZM138.131 17.3634L142.581 17.3634C142.65 17.6251 142.799 17.8694 143.026 18.0963C143.497 18.5675 144.177 18.803 145.067 18.803C146.289 18.803 146.9 18.4977 146.9 17.8869C146.9 17.6077 146.725 17.3896 146.376 17.2325C146.027 17.058 145.504 16.8835 144.806 16.709C144.23 16.5694 143.854 16.4821 143.68 16.4472C143.505 16.4123 143.139 16.3163 142.581 16.1593C142.022 15.9848 141.621 15.8364 141.376 15.7143C141.15 15.5747 140.827 15.3828 140.408 15.1384C140.007 14.8766 139.71 14.6149 139.518 14.3531C139.344 14.0739 139.178 13.7336 139.021 13.3323C138.864 12.9135 138.785 12.4685 138.785 11.9973Q138.785 11.4334 138.95 10.9225Q139.289 9.86816 140.329 9.03943C141.359 8.21924 142.807 7.80914 144.675 7.80914C147.013 7.80914 148.863 8.57697 150.224 10.1126C150.765 10.7758 151.14 11.5349 151.35 12.39L147.031 12.39C146.926 12.1107 146.804 11.8926 146.664 11.7355C146.263 11.2993 145.687 11.0812 144.937 11.0812C143.889 11.0812 143.366 11.3865 143.366 11.9973C143.366 12.2939 143.54 12.5208 143.889 12.6779C144.238 12.835 144.771 12.9833 145.486 13.1229C147.283 13.5417 148.496 13.9081 149.125 14.2223Q150.503 14.8962 151.075 15.9913Q151.48 16.7678 151.48 17.756C151.48 19.0125 150.922 20.0682 149.805 20.9233C148.706 21.7784 147.126 22.2059 145.067 22.2059Q142.196 22.2059 140.358 20.8276Q139.767 20.3841 139.282 19.7977C138.689 19.0823 138.305 18.2708 138.131 17.3634ZM152.65 17.3634L157.1 17.3634C157.17 17.6251 157.318 17.8694 157.545 18.0963C158.016 18.5675 158.697 18.803 159.587 18.803C160.808 18.803 161.419 18.4977 161.419 17.8869C161.419 17.6077 161.245 17.3896 160.896 17.2325C160.547 17.058 160.023 16.8835 159.325 16.709C158.749 16.5694 158.374 16.4821 158.199 16.4472C158.025 16.4123 157.658 16.3163 157.1 16.1593C156.542 15.9848 156.14 15.8364 155.896 15.7143C155.669 15.5747 155.346 15.3828 154.927 15.1384C154.526 14.8766 154.229 14.6149 154.038 14.3531C153.863 14.0739 153.697 13.7336 153.54 13.3323C153.383 12.9135 153.304 12.4685 153.304 11.9973C153.304 10.8456 153.819 9.85962 154.849 9.03943C155.878 8.21924 157.327 7.80914 159.194 7.80914C161.532 7.80914 163.382 8.57697 164.743 10.1126C165.284 10.7758 165.66 11.5349 165.869 12.39L161.55 12.39C161.445 12.1107 161.323 11.8926 161.184 11.7355C160.782 11.2993 160.206 11.0812 159.456 11.0812C158.409 11.0812 157.885 11.3865 157.885 11.9973C157.885 12.2939 158.06 12.5208 158.409 12.6779C158.758 12.835 159.29 12.9833 160.006 13.1229C161.803 13.5417 163.016 13.9081 163.644 14.2223C165.215 14.9901 166 16.168 166 17.756C166 19.0125 165.441 20.0682 164.325 20.9233C163.225 21.7784 161.646 22.2059 159.587 22.2059C157.056 22.2059 155.128 21.4032 153.802 19.7977C153.208 19.0823 152.825 18.2708 152.65 17.3634ZM57.4004 21.8133L57.4004 8.20178L61.8501 8.20178L61.8501 21.8133L57.4004 21.8133ZM69.4485 12.4423Q69.3782 12.5172 69.3142 12.5972Q68.6631 13.411 68.6631 14.7458C68.6631 15.723 68.9248 16.4908 69.4485 17.0493C69.9719 17.6077 70.6699 17.8869 71.5425 17.8869C72.415 17.8869 73.113 17.6077 73.6365 17.0493C74.1602 16.4908 74.4219 15.723 74.4219 14.7458C74.4219 13.7686 74.1602 13.0007 73.6365 12.4423C73.113 11.8839 72.415 11.6047 71.5425 11.6047C70.6699 11.6047 69.9719 11.8839 69.4485 12.4423ZM110.409 12.4946C109.885 13.088 109.623 13.9256 109.623 15.0076C109.623 16.0895 109.885 16.9271 110.409 17.5204C110.932 18.1138 111.63 18.4104 112.503 18.4104C113.375 18.4104 114.073 18.1138 114.597 17.5204C115.12 16.9271 115.382 16.0895 115.382 15.0076C115.382 13.9256 115.12 13.088 114.597 12.4946Q114.316 12.1766 113.969 11.9723Q113.344 11.6047 112.503 11.6047C111.63 11.6047 110.932 11.9013 110.409 12.4946ZM126.887 12.4946C126.364 13.088 126.102 13.9256 126.102 15.0076C126.102 16.0895 126.364 16.9271 126.887 17.5204C127.411 18.1138 128.109 18.4104 128.981 18.4104C129.854 18.4104 130.552 18.1138 131.075 17.5204C131.599 16.9271 131.861 16.0895 131.861 15.0076C131.861 13.9256 131.599 13.088 131.075 12.4946C130.552 11.9013 129.854 11.6047 128.981 11.6047C128.109 11.6047 127.411 11.9013 126.887 12.4946Z" fill="#FFFFFF" fill-opacity="1.000000" fill-rule="evenodd"/>
	<path id="Rectangle 5 (Stroke)" d="M5.23511 5.23517L5.23511 20.9408L20.9407 20.9408L5.23511 5.23517ZM0 0L0 26.176L26.176 26.176L26.176 0L0 0Z" fill="#FF6E30" fill-opacity="1.000000" fill-rule="evenodd"/>
</svg>
