<svg width="190.250732" height="30.700012" viewBox="0 0 190.251 30.7" fill="none" xmlns="http://www.w3.org/2000/svg" xmlns:xlink="http://www.w3.org/1999/xlink">
	<desc>
			Created with Pixso.
	</desc>
	<defs/>
	<path id="High pass" d="M65.486 5.20001C65.486 4.48004 65.756 3.88 66.2959 3.40002Q66.5397 3.17438 66.8213 3.0166Q67.476 2.65002 68.3359 2.65002C69.1559 2.65002 69.8359 2.90002 70.376 3.40002Q70.7852 3.76373 70.9875 4.2193Q71.1859 4.66559 71.1859 5.20001Q71.1859 5.64331 71.0415 6.03314Q70.844 6.56665 70.376 7Q70.1322 7.22565 69.8506 7.38342Q69.1959 7.75 68.3359 7.75Q67.476 7.75 66.8213 7.38342L66.8213 7.38336Q66.5396 7.22565 66.2959 7C65.756 6.5 65.486 5.90002 65.486 5.20001ZM43 25L43 4L48.55 4L48.55 11.8L56.65 11.8L56.65 4L62.2 4L62.2 25L56.65 25L56.65 16.9L48.55 16.9L48.55 25L43 25ZM93.3801 25L93.3801 4L98.4801 4L98.4801 11.5L98.78 11.5C99.0601 11.02 99.42 10.6 99.8601 10.2401Q100.563 9.64752 101.373 9.32715Q102.327 8.95001 103.43 8.95001Q105.591 8.95001 106.998 9.98016Q107.388 10.2656 107.72 10.63C108.76 11.73 109.28 13.32 109.28 15.4L109.28 25L104.18 25L104.18 16.15C104.18 15.25 103.94 14.55 103.46 14.05Q103.314 13.8975 103.145 13.7761L103.145 13.776Q102.484 13.3 101.48 13.3Q100.844 13.3 100.309 13.5338Q99.7607 13.7737 99.3201 14.26C98.7601 14.88 98.4801 15.71 98.4801 16.75L98.4801 25L93.3801 25ZM75.4541 22.63C74.1141 21.15 73.4441 19.2401 73.4441 16.9Q73.4441 14.1138 74.7106 12.1405Q75.0397 11.6278 75.4541 11.17C76.7942 9.69 78.4242 8.95001 80.3441 8.95001C81.7241 8.95001 82.9142 9.35004 83.9142 10.15Q84.6041 10.69 84.9941 11.35L85.2942 11.35L85.2942 9.40002L90.3942 9.40002L90.3942 30.7L75.5442 30.7L75.5442 26.65L85.2942 26.65L85.2942 22.6L84.9941 22.6C84.7141 23.04 84.3541 23.42 83.9142 23.7401Q83.6381 23.9485 83.3396 24.1179Q82.0497 24.85 80.3441 24.85C78.4242 24.85 76.7942 24.11 75.4541 22.63ZM120.538 30.7L120.538 9.40002L125.638 9.40002L125.638 11.5L125.938 11.5C126.218 11.04 126.598 10.62 127.078 10.2401C128.178 9.38 129.348 8.95001 130.588 8.95001C132.508 8.95001 134.138 9.71002 135.478 11.23Q135.715 11.4955 135.925 11.7815L135.925 11.7822Q137.488 13.9195 137.488 17.2Q137.488 20.4595 135.945 22.6134Q135.727 22.9178 135.478 23.2C134.138 24.7 132.508 25.45 130.588 25.45C129.328 25.45 128.158 25.03 127.078 24.19C126.598 23.8101 126.218 23.38 125.938 22.9L125.638 22.9L125.638 30.7L120.538 30.7ZM141.284 23.2C139.944 21.6801 139.274 19.6801 139.274 17.2C139.274 14.72 139.944 12.73 141.284 11.23C142.624 9.71002 144.254 8.95001 146.174 8.95001Q146.599 8.95001 147.014 9.01746L147.014 9.01746Q148.411 9.245 149.684 10.2401C150.144 10.62 150.524 11.04 150.824 11.5L151.124 11.5L151.124 9.40002L156.224 9.40002L156.224 25L151.124 25L151.124 22.9L150.824 22.9C150.544 23.38 150.164 23.8101 149.684 24.19C148.604 25.03 147.434 25.45 146.174 25.45C144.254 25.45 142.624 24.7 141.284 23.2ZM158.31 19.9L163.41 19.9C163.49 20.2 163.66 20.48 163.92 20.7401C164.46 21.28 165.24 21.55 166.26 21.55C167.66 21.55 168.36 21.2 168.36 20.5C168.36 20.1801 168.16 19.9301 167.76 19.75C167.36 19.55 166.76 19.35 165.96 19.15C165.3 18.9901 164.87 18.89 164.67 18.85C164.47 18.81 164.05 18.7 163.41 18.52Q162.45 18.22 162.03 18.01C161.77 17.85 161.4 17.63 160.92 17.35C160.46 17.05 160.12 16.75 159.9 16.45C159.7 16.13 159.51 15.7401 159.33 15.28C159.15 14.8 159.06 14.29 159.06 13.75C159.06 12.4301 159.65 11.3 160.83 10.36C162.01 9.42004 163.67 8.95001 165.81 8.95001C168.49 8.95001 170.61 9.83002 172.17 11.59C172.79 12.35 173.22 13.22 173.46 14.2L168.51 14.2C168.39 13.88 168.25 13.63 168.09 13.45C167.63 12.95 166.97 12.7 166.11 12.7C164.91 12.7 164.31 13.05 164.31 13.75C164.31 14.09 164.51 14.35 164.91 14.53C165.31 14.71 165.92 14.88 166.74 15.04Q169.83 15.76 170.91 16.3C172.71 17.1801 173.61 18.53 173.61 20.35Q173.61 21.1234 173.364 21.8083Q172.923 23.0364 171.69 23.98C170.43 24.96 168.62 25.45 166.26 25.45C163.36 25.45 161.15 24.53 159.63 22.69C158.95 21.8701 158.51 20.94 158.31 19.9ZM174.951 19.9L180.051 19.9C180.131 20.2 180.301 20.48 180.561 20.7401C181.101 21.28 181.881 21.55 182.901 21.55C184.301 21.55 185.001 21.2 185.001 20.5Q185.001 20.3803 184.963 20.2736Q184.851 19.9527 184.401 19.75C184.001 19.55 183.401 19.35 182.601 19.15C181.941 18.9901 181.511 18.89 181.311 18.85C181.111 18.81 180.691 18.7 180.051 18.52C179.411 18.32 178.951 18.15 178.671 18.01C178.411 17.85 178.041 17.63 177.561 17.35C177.101 17.05 176.761 16.75 176.541 16.45C176.341 16.13 176.151 15.7401 175.971 15.28Q175.945 15.21 175.921 15.1392L175.92 15.1352Q175.701 14.4791 175.701 13.75C175.701 12.4301 176.291 11.3 177.471 10.36C178.651 9.42004 180.311 8.95001 182.451 8.95001C185.131 8.95001 187.251 9.83002 188.811 11.59C189.431 12.35 189.861 13.22 190.101 14.2L185.151 14.2Q184.971 13.72 184.731 13.45Q184.62 13.3293 184.493 13.228Q183.833 12.7 182.751 12.7C181.551 12.7 180.951 13.05 180.951 13.75Q180.951 13.8995 181.002 14.0284Q181.127 14.3392 181.551 14.53C181.951 14.71 182.561 14.88 183.381 15.04Q186.471 15.76 187.551 16.3C189.351 17.1801 190.251 18.53 190.251 20.35Q190.251 21.1234 190.005 21.8083Q189.563 23.0364 188.331 23.98C187.071 24.96 185.261 25.45 182.901 25.45C180.001 25.45 177.791 24.53 176.271 22.69C175.591 21.8701 175.151 20.94 174.951 19.9ZM65.7859 25L65.7859 9.40002L70.886 9.40002L70.886 25L65.7859 25ZM79.5941 14.26Q79.5137 14.3459 79.4403 14.4375Q78.6941 15.3703 78.6941 16.9Q78.6941 18.4298 79.4404 19.3625Q79.5137 19.4542 79.5941 19.54C80.1941 20.1801 80.9941 20.5 81.9941 20.5C82.9941 20.5 83.7942 20.1801 84.3942 19.54C84.9941 18.9 85.2942 18.02 85.2942 16.9C85.2942 15.78 84.9941 14.9 84.3942 14.26Q84.1262 13.9742 83.8052 13.7736L83.8049 13.7734Q83.0475 13.3 81.9941 13.3C80.9941 13.3 80.1941 13.6201 79.5941 14.26ZM126.538 14.32C125.938 15 125.638 15.96 125.638 17.2C125.638 18.44 125.938 19.4 126.538 20.08C127.138 20.76 127.938 21.1 128.938 21.1C129.938 21.1 130.738 20.76 131.338 20.08C131.938 19.4 132.238 18.44 132.238 17.2C132.238 15.96 131.938 15 131.338 14.32C130.738 13.64 129.938 13.3 128.938 13.3C127.938 13.3 127.138 13.64 126.538 14.32ZM145.424 14.32C144.824 15 144.524 15.96 144.524 17.2C144.524 18.44 144.824 19.4 145.424 20.08C146.024 20.76 146.824 21.1 147.824 21.1C148.824 21.1 149.624 20.76 150.224 20.08C150.824 19.4 151.124 18.44 151.124 17.2C151.124 15.96 150.824 15 150.224 14.32C149.624 13.64 148.824 13.3 147.824 13.3C146.824 13.3 146.024 13.64 145.424 14.32Z" fill="#FFFFFF" fill-opacity="1.000000" fill-rule="evenodd"/>
	<path id="Rectangle 5 (Stroke)" d="M6 6L6 24L24 24L6 6ZM0 0L0 30L30 30L30 0L0 0Z" fill="#FF6E30" fill-opacity="1.000000" fill-rule="evenodd"/>
</svg>
