<svg width="11.666626" height="12.833252" viewBox="0 0 11.6666 12.8333" fill="none" xmlns="http://www.w3.org/2000/svg" xmlns:xlink="http://www.w3.org/1999/xlink">
	<desc>
			Created with Pixso.
	</desc>
	<defs/>
	<path id="Vector" d="M10.5 1.16675L9.91663 1.16675L9.91663 0L8.75 0L8.75 1.16675L2.91663 1.16675L2.91663 0L1.75 0L1.75 1.16675L1.16663 1.16675C0.525024 1.16675 0 1.69165 0 2.33325L0 11.6667C0 12.3083 0.525024 12.8333 1.16663 12.8333L10.5 12.8333C11.1417 12.8333 11.6666 12.3083 11.6666 11.6667L11.6666 2.33325C11.6666 1.69165 11.1417 1.16675 10.5 1.16675ZM10.5 11.6667L1.16663 11.6667L1.16663 4.08325L10.5 4.08325L10.5 11.6667Z" fill="#999999" fill-opacity="1.000000" fill-rule="nonzero"/>
</svg>
