<svg width="30.000000" height="30.000000" viewBox="0 0 30 30" fill="none" xmlns="http://www.w3.org/2000/svg" xmlns:xlink="http://www.w3.org/1999/xlink">
	<desc>
			Created with Pixso.
	</desc>
	<defs/>
	<path id="ok" d="M30 15C30 23.2842 23.2842 30 15 30C6.71582 30 0 23.2842 0 15C0 6.71582 6.71582 0 15 0C23.2842 0 30 6.71582 30 15ZM15.0918 4.57373C12.1001 4.57373 9.67505 6.99902 9.67505 9.99048C9.67505 12.9822 12.1001 15.4077 15.0918 15.4077C18.0837 15.4077 20.5088 12.9822 20.5088 9.99048C20.5088 6.99902 18.0837 4.57373 15.0918 4.57373ZM15.0918 12.23C13.8552 12.23 12.8528 11.2273 12.8528 9.99072C12.8528 8.75391 13.8552 7.75146 15.0918 7.75146C16.3286 7.75146 17.3311 8.75391 17.3311 9.99072C17.3311 11.2273 16.3286 12.23 15.0918 12.23ZM17.0042 19.718C19.1729 19.2761 20.4724 18.249 20.5413 18.1941C21.1758 17.6851 21.2776 16.7581 20.7688 16.1235C20.26 15.489 19.333 15.387 18.6982 15.8958C18.6848 15.9067 17.2988 16.97 15.0183 16.9714C12.7378 16.97 11.3225 15.9067 11.3091 15.8958C10.6743 15.387 9.74756 15.489 9.23853 16.1235C8.72974 16.7581 8.83154 17.6851 9.46631 18.1941C9.53589 18.25 10.8892 19.3037 13.1184 19.7351L10.0115 22.9822C9.44678 23.5676 9.46362 24.5002 10.0493 25.0647C10.3352 25.3403 10.7036 25.4773 11.0715 25.4773C11.4575 25.4773 11.843 25.3267 12.1318 25.0269L15.0183 21.9519L18.1963 25.0466C18.7722 25.6216 19.7046 25.6206 20.2793 25.0452C20.854 24.4695 20.8533 23.5369 20.2776 22.9622L17.0042 19.718Z" fill="#CACACA" fill-opacity="1.000000" fill-rule="evenodd"/>
</svg>
