<svg width="16.500000" height="16.500000" viewBox="0 0 16.5 16.5" fill="none" xmlns="http://www.w3.org/2000/svg" xmlns:xlink="http://www.w3.org/1999/xlink">
	<desc>
			Created with Pixso.
	</desc>
	<defs/>
	<path id="Vector" d="M15.5925 11.3484C14.465 11.3484 13.3741 11.165 12.3567 10.835C12.0359 10.7251 11.6783 10.8076 11.4308 11.0549L9.9917 12.8608C7.39746 11.6233 4.96838 9.28589 3.67578 6.6001L5.46338 5.07837C5.71082 4.82178 5.78418 4.46411 5.68335 4.14331C5.34412 3.12573 5.17004 2.03491 5.17004 0.907471C5.17004 0.412598 4.75745 0 4.26245 0L1.09082 0C0.595825 0 0 0.219971 0 0.907471C0 9.42334 7.08582 16.5 15.5925 16.5C16.2433 16.5 16.5 15.9226 16.5 15.4182L16.5 12.2559C16.5 11.7607 16.0875 11.3484 15.5925 11.3484Z" fill="#FF6E30" fill-opacity="1.000000" fill-rule="nonzero"/>
</svg>
