<svg width="30.000000" height="30.000000" viewBox="0 0 30 30" fill="none" xmlns="http://www.w3.org/2000/svg" xmlns:xlink="http://www.w3.org/1999/xlink">
	<desc>
			Created with Pixso.
	</desc>
	<defs/>
	<path id="Vector" d="M15 0C6.71606 0 0 6.71582 0 15C0 23.2842 6.71606 30 15 30C23.2839 30 30 23.2842 30 15C30 6.71582 23.2839 0 15 0ZM22.6089 16.6223C23.3079 17.3052 24.0476 17.9478 24.6753 18.7012C24.9534 19.0347 25.2153 19.3792 25.4148 19.7668C25.6997 20.3196 25.4424 20.9258 24.9478 20.9585L21.8748 20.958C21.0811 21.0237 20.4495 20.7036 19.917 20.1609C19.4919 19.7285 19.0974 19.2666 18.688 18.8193C18.5208 18.636 18.3447 18.4631 18.1348 18.3271C17.7158 18.0547 17.3518 18.1382 17.1118 18.5757C16.8672 19.021 16.8113 19.5146 16.7881 20.0103C16.7546 20.7349 16.5361 20.9243 15.8091 20.9583C14.2554 21.031 12.7815 20.7954 11.4114 20.012C10.2029 19.3213 9.26733 18.3462 8.45215 17.2422C6.86475 15.0903 5.64917 12.7283 4.55688 10.2986C4.31104 9.75122 4.49097 9.4585 5.09473 9.44727C6.09766 9.42773 7.10059 9.43018 8.10352 9.44629C8.51172 9.45264 8.78174 9.68628 8.93872 10.0713C9.48071 11.405 10.145 12.6736 10.9778 13.8503C11.1997 14.1636 11.426 14.4761 11.7485 14.6975C12.1047 14.9417 12.376 14.8611 12.5439 14.4636C12.6514 14.2109 12.6975 13.9409 12.7209 13.6702C12.8008 12.7429 12.8103 11.8162 12.6721 10.8926C12.5862 10.3147 12.2612 9.94165 11.6851 9.83228C11.3916 9.77686 11.4346 9.66821 11.5774 9.50049C11.825 9.21094 12.0571 9.03149 12.5208 9.03149L15.9929 9.03101C16.54 9.13843 16.6628 9.38403 16.7371 9.93506L16.7402 13.7935C16.7336 14.0068 16.8472 14.6392 17.2302 14.7788C17.5371 14.8799 17.7397 14.6338 17.9233 14.4397C18.7559 13.5559 19.3491 12.5132 19.8804 11.4338C20.115 10.9578 20.3171 10.4651 20.5137 9.97168C20.6597 9.60669 20.8867 9.42725 21.2986 9.43335L24.6421 9.43726C24.7405 9.43726 24.8406 9.43823 24.9382 9.45508C25.5017 9.55151 25.656 9.79395 25.4817 10.3438C25.2073 11.2073 24.6743 11.9268 24.1531 12.6479C23.5945 13.4202 22.9988 14.1653 22.4458 14.9407C21.9375 15.6497 21.9778 16.0066 22.6089 16.6223Z" fill="#CACACA" fill-opacity="1.000000" fill-rule="nonzero"/>
</svg>
